<?xml version="1.0" encoding="utf-8"?>
<!-- Generator: Adobe Illustrator 16.0.0, SVG Export Plug-In . SVG Version: 6.00 Build 0)  -->
<!DOCTYPE svg PUBLIC "-//W3C//DTD SVG 1.1//EN" "http://www.w3.org/Graphics/SVG/1.1/DTD/svg11.dtd">
<svg version="1.1" xmlns="http://www.w3.org/2000/svg" xmlns:xlink="http://www.w3.org/1999/xlink" x="0px" y="0px" width="128px"
	 height="128px" viewBox="0 0 128 128" enable-background="new 0 0 128 128" xml:space="preserve">
<g id="BG" display="none">
	<path display="inline" d="M128,120c0,4.418-3.582,8-8,8H8c-4.418,0-8-3.582-8-8V8c0-4.418,3.582-8,8-8h112c4.418,0,8,3.582,8,8V120
		z"/>
</g>
<g id="artstation" display="none">
	<path display="inline" d="M120,0H8C3.582,0,0,3.582,0,8v112c0,4.418,3.582,8,8,8h112c4.418,0,8-3.582,8-8V8
		C128,3.582,124.418,0,120,0z M44.877,34.429C52.547,47.52,59.916,60,67.469,73c-15.194,0-29.933,0-45.18,0
		C29.828,60,37.22,47.499,44.877,34.429z M85.111,107.316c-17.629,0.007-35.252-0.049-52.884,0.049
		c-4.731,0.024-7.97-1.77-10.233-5.836C19.497,97.045,16.833,92,14,88c1.191,0,1.831,0,2.469,0c19.01,0,38.014-0.146,57.023-0.209
		c1.747-0.004,2.734,0.445,3.6,1.969c3.023,5.368,6.201,10.606,9.322,15.929c0.251,0.408,0.43,0.857,0.757,1.527
		C86.346,107.258,85.729,107.316,85.111,107.316z M112.482,92.884c-2.77,4.667-5.472,9.361-8.496,14.54
		C86.963,78.372,70.201,49.741,53.271,20.828c0.788-0.105,1.301-0.232,1.819-0.234c4.932-0.019,9.863-0.016,14.805-0.018
		c4.453-0.001,7.7,1.957,9.946,5.839C90.611,44.977,101.427,63.51,112.27,82.02C114.394,85.661,114.673,89.201,112.482,92.884z"/>
</g>
<g id="twitter" display="none">
	<path display="inline" d="M120,0H8C3.582,0,0,3.582,0,8v112c0,4.418,3.582,8,8,8h112c4.418,0,8-3.582,8-8V8
		C128,3.582,124.418,0,120,0z M105.588,40.64c-0.084,0.07-0.156,0.153-0.248,0.207c-1.35,0.766-1.59,1.961-1.555,3.536
		c0.178,8.399-1.441,16.463-4.377,24.25c-2.277,6.057-5.354,11.653-9.223,16.707c-3.158,4.115-6.758,7.747-10.811,10.864
		c-4.508,3.454-9.387,6.119-14.633,8.003c-4.573,1.645-9.282,2.65-14.097,3.051c-5.816,0.471-11.609,0.223-17.322-1.06
		c-4.822-1.091-9.485-2.724-13.881-5.144c-1.843-1.007-3.655-2.086-5.442-3.245c5.369,0.391,10.636,0.056,15.799-1.519
		c5.153-1.572,9.867-4.048,14.038-7.668c-10.207-0.558-16.94-8.3-18.8-15.186c1.463,0.078,2.91,0.229,4.356,0.186
		c1.453-0.064,2.902-0.32,4.37-0.609c-10.052-3.328-15.442-10.472-16.037-21.699c2.877,1.338,5.769,2.409,9.178,2.448
		c-4.464-3.46-7.347-7.8-8.503-13.324c-1.156-5.543-0.399-10.805,2.222-15.857C31.768,38.528,45.827,46.223,63.03,47.493
		c-0.131-1.408-0.307-2.67-0.366-3.926c-0.3-6.817,1.897-12.597,6.574-17.215c5.158-5.069,11.309-6.739,18.137-5.374
		c3.932,0.785,7.381,2.768,10.219,5.841c0.426,0.458,0.799,0.579,1.412,0.435c4.033-0.969,7.865-2.514,11.482-4.671
		c0.143-0.084,0.283-0.159,0.436-0.229c0.035-0.022,0.098-0.003,0.27-0.003c-1.553,4.969-4.465,8.739-8.443,11.68
		c3.877-0.308,7.49-1.556,11.25-3.175C111.527,34.689,108.818,37.915,105.588,40.64z"/>
</g>
<g id="DA" display="none">
	<path display="inline" d="M120,0H8C3.582,0,0,3.582,0,8v112c0,4.418,3.582,8,8,8h112c4.418,0,8-3.582,8-8V8
		C128,3.582,124.418,0,120,0z M90.958,35.506c-0.006,0.631-0.132,1.317-0.424,1.871c-4.935,9.454-9.9,18.787-14.863,28.227
		C74.938,67,75.635,68,77.277,68c4.032,0,8.066,0,12.092,0C89.841,68,90,68,91,68c0,7,0,15,0,22c-1,0-1.165,0-1.682,0
		c-7.882,0-15.771,0.033-23.654,0.027c-1.83-0.003-3.159,0.916-3.987,2.435c-2.206,4.069-4.362,8.152-6.465,12.264
		c-0.939,1.834-2.109,2.802-4.368,2.702c-4.542-0.193-9.098-0.054-13.762-0.054c-0.021-0.497-0.057-0.911-0.059-1.336
		c-0.004-4.42-0.028-8.85,0.02-13.27c0.007-0.711,0.204-1.478,0.534-2.102c4.925-9.467,9.888-18.905,14.836-28.347
		c0.725-1.386,0.024-2.419-1.567-2.424C46.772,59.887,42.7,60,38.627,60C38.152,60,38,60,37,60c0-8,0-15,0-22c1,0,1.065,0,1.564,0
		c7.972,0,15.943-0.037,23.914-0.031c1.846,0.001,3.153-0.962,3.976-2.483c2.164-3.975,4.218-8.012,6.329-12.018
		c0.172-0.345,0.34-0.72,0.562-1.032c0.804-1.11,1.649-1.731,3.289-1.675C80.878,20.903,85.134,21,89.379,21c0.47,0,0.95,0,1.503,0
		c0.048,0,0.093,0.659,0.093,1.038C90.983,26.591,91.003,30.953,90.958,35.506z"/>
</g>
<g id="_tumblr" display="none">
	<path display="inline" d="M120,0H8C3.582,0,0,3.582,0,8v112c0,4.418,3.582,8,8,8h112c4.418,0,8-3.582,8-8V8
		C128,3.582,124.418,0,120,0z M92,55c-9,0-16.686,0-22.712,0c-0.302,0-0.293,0.159-0.293,0.302
		c0.049,9.146,0.157,17.958,0.483,27.099c0.17,4.605,3.585,7.063,8.266,7.069c2.026,0.003,4.985-0.604,7.008-1.052
		C86.484,88.029,89,87.475,92,86.914c0,0.008,0,0.017,0,0.02v16.825c0,1.088-3.414,1.719-5.133,2.096
		c-7.783,1.708-17.339,2.089-25.034-0.36c-8.486-2.697-13.197-8.958-13.273-17.88c-0.084-9.909-0.074-19.67-0.117-29.578
		C48.435,57.019,48.356,55,48.295,55c-3.046,0-9.271,0-12.295,0c0-6,0-10.611,0-15.572c12.101-1.411,16.505-7.657,18.118-17.094
		c0.131-0.788,2.95-1.97,3.651-2.014C61.142,20.107,63,20.226,68,20.226C68,26.462,68,30,68,34c6,0,15,0,24,0C92,40,92,49,92,55z"/>
</g>
<g id="twitch" display="none">
	<g display="inline">
		<path d="M97.404,29C76.891,29,57,29,36,29c0,18,0,36,0,54c6,0,11,0,17,0c0,3,0,6.736,0,10.05c0,0.192,0.518,0.385,0.789,0.574
			c2.237-2.456,4.607-4.806,6.659-7.417c2.292-2.906,5.018-3.87,8.704-3.648c5.08,0.306,10.803,1.442,15.12-0.414
			c4.544-1.953,7.841-6.926,11.483-10.764c0.995-1.05,1.761-2.775,1.778-4.203c0.14-11.938,0.08-23.729,0.065-35.674
			C97.599,30.625,97.474,30,97.404,29z M64,66c-2,0-5,0-7,0c0-8,0-15,0-22c2,0,4,0,7,0C64,51,64,58,64,66z M84,66c-2,0-4,0-7,0
			c0-8,0-15,0-22c3,0,5,0,7,0C84,51,84,58,84,66z"/>
		<path d="M120,0H8C3.582,0,0,3.582,0,8v112c0,4.418,3.582,8,8,8h112c4.418,0,8-3.582,8-8V8C128,3.582,124.418,0,120,0z
			 M105.088,70.795c-0.016,1.41-0.667,3.147-1.657,4.171c-6.308,6.525-12.69,12.938-19.207,19.254
			c-0.956,0.933-2.568,1.553-3.923,1.623c-4.069,0.21-8.148-0.044-12.214,0.148c-1.277,0.059-2.649,0.755-3.705,1.527
			c-1.38,1.015-2.497,2.238-3.436,3.654C56.76,107.466,50,107.964,44,106.743C44,103.377,44,100,44,96c-7,0-14,0-21,0
			c0-1,0-2.495,0-3.567c0-14.885,0.107-29.779-0.21-44.659c-0.166-7.869,0.826-15.255,3.922-22.549
			c1.399-3.301,2.718-4.441,6.393-4.411C55.845,21.007,78.555,21,101.295,21c1.209,0,2.705,0,3.705,0c0,4,0,8.407,0,12.47
			C105,45.913,105.225,58.355,105.088,70.795z"/>
	</g>
</g>
<g id="patreon_1_">
	<linearGradient id="SVGID_1_" gradientUnits="userSpaceOnUse" x1="2.3442" y1="2.3442" x2="125.657" y2="125.657">
		<stop  offset="0" style="stop-color:#9966FF"/>
		<stop  offset="0.0454" style="stop-color:#8C5FF1"/>
		<stop  offset="0.18" style="stop-color:#6B4CCB"/>
		<stop  offset="0.305" style="stop-color:#533EB0"/>
		<stop  offset="0.4155" style="stop-color:#4436A0"/>
		<stop  offset="0.5" style="stop-color:#3F339A"/>
		<stop  offset="0.5835" style="stop-color:#4136A0"/>
		<stop  offset="0.6928" style="stop-color:#483EB0"/>
		<stop  offset="0.8164" style="stop-color:#524CCB"/>
		<stop  offset="0.9495" style="stop-color:#605FF1"/>
		<stop  offset="0.9944" style="stop-color:#6666FF"/>
	</linearGradient>
	<path fill="url(#SVGID_1_)" d="M120,0H8C3.582,0,0,3.582,0,8v112c0,4.418,3.582,8,8,8h112c4.418,0,8-3.582,8-8V8
		C128,3.582,124.418,0,120,0z M107,66.742c0,0.137,0.131,0.272,0.117,0.409c-0.09,0.871-0.051,1.741-0.158,2.608
		c-0.484,3.884-1.462,7.622-2.989,11.222c-6.184,14.595-19.952,24.621-35.862,26.066c-0.475,0.045-0.92-0.048-1.395-0.048
		c-7.546,0-15.093,0-22.64,0c0-14,0.003-28.435-0.003-42.763c0-1.559,0.113-2.989,0.449-4.513
		c2.253-10.201,12.054-17.159,22.928-15.288c4.367,0.751,8.105,2.807,11.094,6.086c4.326,4.747,6.025,10.369,5.076,16.711
		c-0.666,4.456-2.719,8.261-6.014,11.348c-3.73,3.497-8.184,5.303-13.286,5.42c-3.707,0.083-7.195-0.84-10.404-2.716
		C53.639,81.125,53,80.969,53,80.765c0,0.249,0,0.415,0,0.576c0,4.269,0,8.535,0,12.805c0,1.123,0.017,1.121,1.065,1.54
		c3.143,1.247,6.474,1.516,9.792,1.731c1.383,0.09,2.795-0.071,4.186-0.214c2.961-0.307,5.818-1.071,8.572-2.201
		c5.596-2.299,10.253-5.849,13.937-10.65c3.787-4.93,5.996-10.503,6.689-16.674c0.285-2.535,0.255-5.071-0.05-7.607
		c-0.385-3.216-1.213-6.308-2.498-9.275C89.9,39.739,79.412,31.995,67.377,30.837c-3.012-0.289-6.01-0.218-8.987,0.297
		c-5.792,1.005-11.018,3.322-15.517,7.106c-7.927,6.667-12.127,15.202-12.198,25.584c-0.098,14.414-0.026,28.606-0.026,43.019
		c0,0.125,0.017,0.156,0.028,0.156c-3.361,0-6.677,0-9.677,0c0-14,0-29.289,0-44.158c0-0.192-0.125-0.385-0.12-0.579
		c0.078-2.703,0.322-5.375,0.959-7.998c2.786-11.48,9.093-20.46,19.014-26.865c6.499-4.195,14.3-6.699,22.068-6.837
		c6.988-0.122,13.972,1.42,20.242,4.507c13.531,6.665,22.516,19.904,23.877,34.869c0.041,0.46-0.04,0.918-0.04,1.377
		C107,63.126,107,64.936,107,66.742z"/>
</g>
<g id="instagram" display="none">
	<g display="inline">
		<linearGradient id="SVGID_2_" gradientUnits="userSpaceOnUse" x1="33.5142" y1="33.4878" x2="94.5656" y2="94.5393">
			<stop  offset="0" style="stop-color:#9966FF"/>
			<stop  offset="0.0454" style="stop-color:#8C5FF1"/>
			<stop  offset="0.18" style="stop-color:#6B4CCB"/>
			<stop  offset="0.305" style="stop-color:#533EB0"/>
			<stop  offset="0.4155" style="stop-color:#4436A0"/>
			<stop  offset="0.5" style="stop-color:#3F339A"/>
			<stop  offset="0.5835" style="stop-color:#4136A0"/>
			<stop  offset="0.6928" style="stop-color:#483EB0"/>
			<stop  offset="0.8164" style="stop-color:#524CCB"/>
			<stop  offset="0.9495" style="stop-color:#605FF1"/>
			<stop  offset="0.9944" style="stop-color:#6666FF"/>
		</linearGradient>
		<path fill="url(#SVGID_2_)" d="M98.601,41.042c-0.821-3.568-2.543-6.57-5.475-8.827c-2.176-1.674-4.692-2.521-7.355-3.008
			c-2.576-0.47-5.188-0.537-7.79-0.579c-9.998-0.16-19.997-0.233-29.994,0.074c-2.319,0.071-4.63,0.233-6.905,0.756
			c-3.601,0.828-6.622,2.568-8.882,5.535c-1.756,2.307-2.686,4.966-3.023,7.795c-0.309,2.583-0.476,5.193-0.524,7.794
			c-0.082,4.468-0.022,8.939-0.022,13.41c-0.052,0-0.011,10.513,0.092,15.769c0.048,2.435,0.214,4.862,0.766,7.249
			c0.839,3.63,2.61,6.666,5.623,8.921c2.147,1.609,4.616,2.426,7.22,2.9c2.532,0.462,5.1,0.531,7.661,0.573
			c10.055,0.166,20.111,0.236,30.164-0.071c2.321-0.071,4.635-0.229,6.905-0.765c3.298-0.78,6.139-2.326,8.344-4.947
			c1.928-2.291,2.934-4.981,3.452-7.889c0.455-2.563,0.532-5.158,0.573-7.748c0.164-9.998,0.233-19.997-0.07-29.994
			C99.289,45.656,99.127,43.33,98.601,41.042z M64.048,86.266c-12.263,0.005-22.256-9.988-22.251-22.254
			c0.005-12.27,10.008-22.261,22.264-22.24c12.265,0.021,22.216,9.973,22.227,22.232C86.302,76.269,76.32,86.26,64.048,86.266z
			 M87.168,46.093c-2.861,0.002-5.188-2.312-5.2-5.176c-0.014-2.86,2.297-5.188,5.165-5.206c2.868-0.019,5.195,2.277,5.219,5.148
			C92.373,43.745,90.051,46.088,87.168,46.093z"/>
		<linearGradient id="SVGID_3_" gradientUnits="userSpaceOnUse" x1="2.3442" y1="2.3442" x2="125.657" y2="125.657">
			<stop  offset="0" style="stop-color:#9966FF"/>
			<stop  offset="0.0454" style="stop-color:#8C5FF1"/>
			<stop  offset="0.18" style="stop-color:#6B4CCB"/>
			<stop  offset="0.305" style="stop-color:#533EB0"/>
			<stop  offset="0.4155" style="stop-color:#4436A0"/>
			<stop  offset="0.5" style="stop-color:#3F339A"/>
			<stop  offset="0.5835" style="stop-color:#4136A0"/>
			<stop  offset="0.6928" style="stop-color:#483EB0"/>
			<stop  offset="0.8164" style="stop-color:#524CCB"/>
			<stop  offset="0.9495" style="stop-color:#605FF1"/>
			<stop  offset="0.9944" style="stop-color:#6666FF"/>
		</linearGradient>
		<path fill="url(#SVGID_3_)" d="M120,0H8C3.582,0,0,3.582,0,8v112c0,4.418,3.582,8,8,8h112c4.418,0,8-3.582,8-8V8
			C128,3.582,124.418,0,120,0z M107.185,79.494c-0.072,3.396-0.289,6.78-1.189,10.082c-1.845,6.776-5.827,11.812-12.189,14.873
			c-2.572,1.239-5.313,1.947-8.144,2.287c-4.59,0.551-9.204,0.556-13.813,0.571c-6.819,0.023-13.638,0.017-20.455-0.075
			c-3.003-0.04-6.019-0.178-9-0.526c-5.28-0.614-10.046-2.498-13.978-6.23c-3.679-3.494-5.757-7.812-6.75-12.719
			c-0.546-2.69-0.687-5.423-0.765-8.157c-0.278-9.639-0.223-19.278-0.066-28.918c0.044-2.773,0.19-5.559,0.516-8.313
			c0.617-5.204,2.446-9.916,6.087-13.822c3.511-3.768,7.879-5.898,12.865-6.906c2.693-0.545,5.423-0.685,8.157-0.764
			c9.695-0.28,19.394-0.223,29.088-0.063c2.719,0.045,5.444,0.185,8.141,0.509c6.952,0.836,12.762,3.781,16.895,9.61
			c2.09,2.95,3.264,6.277,3.924,9.803c0.636,3.409,0.701,6.865,0.755,10.313C107.327,55.374,107.291,74.339,107.185,79.494z"/>
		<linearGradient id="SVGID_4_" gradientUnits="userSpaceOnUse" x1="53.8394" y1="53.813" x2="74.2495" y2="74.2231">
			<stop  offset="0" style="stop-color:#9966FF"/>
			<stop  offset="0.0454" style="stop-color:#8C5FF1"/>
			<stop  offset="0.18" style="stop-color:#6B4CCB"/>
			<stop  offset="0.305" style="stop-color:#533EB0"/>
			<stop  offset="0.4155" style="stop-color:#4436A0"/>
			<stop  offset="0.5" style="stop-color:#3F339A"/>
			<stop  offset="0.5835" style="stop-color:#4136A0"/>
			<stop  offset="0.6928" style="stop-color:#483EB0"/>
			<stop  offset="0.8164" style="stop-color:#524CCB"/>
			<stop  offset="0.9495" style="stop-color:#605FF1"/>
			<stop  offset="0.9944" style="stop-color:#6666FF"/>
		</linearGradient>
		<path fill="url(#SVGID_4_)" d="M64.094,49.581c-7.969-0.034-14.476,6.441-14.488,14.418c-0.012,7.955,6.446,14.436,14.408,14.456
			c7.955,0.022,14.438-6.432,14.466-14.397C78.51,56.103,72.061,49.615,64.094,49.581z"/>
	</g>
</g>
<g id="Layer_9" display="none">
	<rect display="inline" fill="#9966FF" width="40" height="40"/>
	<rect x="44" display="inline" fill="#3F339A" width="40" height="40"/>
	<rect x="88" display="inline" fill="#6666FF" width="40" height="40"/>
</g>
</svg>
